<svg height="50" width="76" xmlns="http://www.w3.org/2000/svg"><path d="M73.776 13.145H60.79c-1.328 0-1.763.473-1.763 1.908v20.973c0 1.33.474 1.763 1.908 1.763h1.355c1.435 0 1.908-.447 1.908-1.763V27.79h8.053c1.329 0 1.763-.473 1.763-1.907v-.921c0-1.435-.447-1.908-1.763-1.908h-8.04v-4.935h9.566c1.33 0 1.763-.473 1.763-1.907v-1.145c0-1.448-.434-1.921-1.763-1.921zM54.132 32.829h-6.185c-1.473 0-2.25-.224-2.763-.697-.592-.553-.776-1.33-.776-2.764V15.053c0-1.435-.447-1.908-1.763-1.908h-1.658c-1.33 0-1.763.473-1.763 1.908v14.829c0 2.684.513 4.486 1.723 5.815 1.356 1.435 3.316 2.092 6.474 2.092h6.697c1.33 0 1.764-.473 1.764-1.907v-1.145c.013-1.434-.421-1.908-1.75-1.908zm-19.158 0h-6.777c-1.473 0-2.25-.224-2.763-.697-.592-.553-.776-1.33-.776-2.764V27.79h8.5c1.329 0 1.763-.473 1.763-1.907v-.921c0-1.435-.447-1.908-1.763-1.908h-8.5v-4.935H34.67c1.329 0 1.763-.473 1.763-1.907v-1.145c0-1.434-.447-1.908-1.763-1.908H21.25c-1.329 0-1.763.474-1.763 1.908v14.829c0 2.684.513 4.487 1.724 5.816 1.355 1.434 3.315 2.092 6.473 2.092h7.29c1.329 0 1.763-.474 1.763-1.908V34.75c0-1.447-.434-1.921-1.763-1.921zM5.487 20.21c0-1.33 1.474-2.25 3.895-2.25 2.25 0 3.934.473 5.079.473.815 0 1.065-.447 1.065-1.329V15.5c0-1.171-.144-1.579-1.434-1.908-1.355-.368-3.237-.592-5.04-.592-4.894 0-8.947 2.868-8.947 7.579 0 8.132 11.513 6.474 11.513 10.013 0 1.395-1.473 2.395-4.381 2.395-1.619 0-3.974-.408-5.408-.816-.408-.105-.632-.145-.842-.145-.698 0-.96.448-.96 1.29v1.947c0 1.066.289 1.395 1.473 1.803 1.618.552 4.197.881 6.184.881 6.04 0 9.277-3.052 9.277-7.697.013-8.053-11.474-6.434-11.474-10.04z"/></svg>